# xmcd
#
# Track frame offsets: 
#        150
#        18725
#        32018
#        60823
#        78063
#        91854
#        108347
#        133263
#        161604
#        187278
#        224878
#        247431
#        284249
#        293580
#        324751
#
# Disc length: 4710 seconds
#
# Revision: 2
# Processed by: cddbd v1.5.2PL0 Copyright (c) Steve Scherf et al.
# Submitted via: ExactAudioCopy v1.3
#
DISCID=e112640f
DTITLE=Dzem - Zlota Kolekcja - Kim jestem - jestem sobie
DYEAR=2012
DGENRE=Blues
TTITLE0=Dzem - Kim jestem - jestem sobie
TTITLE1=Dzem - Kaczor cos ty zrobil
TTITLE2=Dzem - Koszmarna noc
TTITLE3=Dzem - Nieudany skok
TTITLE4=Dzem - Czlowieku, co sie z toba dzieje
TTITLE5=Dzem - Wokol sami lunatycy
TTITLE6=Dzem - Tylko ja i ty
TTITLE7=Dzem - Alex
TTITLE8=Dzem - Partyzant
TTITLE9=Dzem - Ostatnie widzenie
TTITLE10=Dzem - Mamy forse
TTITLE11=Dzem - Oh, slodka
TTITLE12=Dzem - Letni spacer z Agnieszka
TTITLE13=Dzem - Do kolyski
TTITLE14=Dzem - Dzikosc mego serca
EXTD=YEAR: 2012
EXTT0=
EXTT1=
EXTT2=
EXTT3=
EXTT4=
EXTT5=
EXTT6=
EXTT7=
EXTT8=
EXTT9=
EXTT10=
EXTT11=
EXTT12=
EXTT13=
EXTT14=
PLAYORDER=
